# xmcd CD database file
#
# Track frame offsets:
#	150
#	18009
#	35407
#	69454
#	84429
#	114632
#	132589
#	155236
#	195218
#	209746
#
# Disc length: 3055 seconds
#
# Revision: 0
# Processed by: cddbd v1.5PL3 Copyright (c) Steve Scherf et al.
# Submitted via: CDex 1.40Release
#
DISCID=870bed0a
DTITLE=Eric Clapton - The Blues Concert  Cd 2 
DYEAR=1900
DGENRE=Blues
TTITLE0=someday after awhile     
TTITLE1=cross cut saw            
TTITLE2=have you ever loved a wom
TTITLE3=I'm Tore Down
TTITLE4=Groaning The Blues
TTITLE5=Ain't Nobody's Business
TTITLE6=Early In the Morning
TTITLE7=Driftin Blues
TTITLE8=Hoochie Coochie Man
TTITLE9=Born Under a Bad Sign
EXTD=ID3G: 0
EXTT0=
EXTT1=
EXTT2=
EXTT3=
EXTT4=
EXTT5=
EXTT6=
EXTT7=
EXTT8=
EXTT9=
PLAYORDER=
